<svg version="1.1" id="Layer_1" xmlns="http://www.w3.org/2000/svg" xmlns:xlink="http://www.w3.org/1999/xlink" x="0px" y="0px"
	 viewBox="0 0 486.5 105.4" style="enable-background:new 0 0 486.5 105.4;" xml:space="preserve">
	<style type="text/css">
		.st0{fill:#FFFFFF;}
		.st1{fill:#FFFFFF;}
	</style>
	<g>
		<g>
			<path class="st0" d="M153.4,48.6h-17.6c-2.5,0-4.5-2-4.5-4.5V6.9c0-2.5,2-4.5,4.5-4.5h17c8.2,0,13.1,5,13.1,11.8
				c0,5.8-3.8,9.7-8.1,10.6c4.9,0.8,9,5.7,9,11.3C166.8,43.4,162,48.6,153.4,48.6z M151.6,8.5h-13.4V22h13.4c4.6,0,7.3-2.9,7.3-6.8
				C158.9,11.4,156.3,8.5,151.6,8.5z M151.9,28h-13.7v14.5h13.7c5,0,7.9-2.8,7.9-7.3C159.8,31.4,157.1,28,151.9,28z"/>
			<path class="st0" d="M203,33.9h-23.2c0.5,5.7,4.6,10.6,11.4,10.6c2.8,0,5.9-1,8.3-2.8c0.4-0.2,0.9-0.3,1.4-0.3
				c1.1,0,2.5,1,2.5,2.5c0,3.7-8.6,5.6-12.8,5.6c-10,0-17.2-7.1-17.2-17.6c0-9.7,7-17.5,16.7-17.5c8.1,0,13.6,5.1,15.6,12.5
				c0.3,1.1,0.6,2.6,0.6,3.9C206.1,32.4,204.7,33.9,203,33.9z M189.9,19.3c-6.6,0-9.9,5.5-10.2,10.2h20.5C200,25,197,19.3,189.9,19.3
				z"/>
			<path class="st0" d="M241.7,33.9h-23.2c0.5,5.7,4.6,10.6,11.4,10.6c2.8,0,5.9-1,8.3-2.8c0.4-0.2,0.9-0.3,1.4-0.3
				c1.1,0,2.5,1,2.5,2.5c0,3.7-8.6,5.6-12.8,5.6c-10,0-17.2-7.1-17.2-17.6c0-9.7,7-17.5,16.7-17.5c8.1,0,13.6,5.1,15.6,12.5
				c0.3,1.1,0.6,2.6,0.6,3.9C244.9,32.4,243.4,33.9,241.7,33.9z M228.6,19.3c-6.6,0-9.9,5.5-10.2,10.2h20.5
				C238.8,25,235.7,19.3,228.6,19.3z"/>
			<path class="st0" d="M278.6,45.3c-2.5,2.4-5.9,4.1-10.9,4.1c-10,0-16.9-7.5-16.9-17.6c0-10,6.9-17.5,16.9-17.5
				c5.1,0,8.9,1.8,11.1,4.4c0.3,0.4,0.5,0.9,0.5,1.5c0,1.5-1.3,2.8-2.8,2.8c-0.7,0-1.4-0.3-1.9-0.8c-1.9-1.7-4.1-2.4-6.5-2.4
				c-6.6,0-10.9,5.1-10.9,12c0,7,4.3,12.1,10.9,12.1c2.5,0,4.6-0.8,6.5-2.5c0.6-0.4,1.2-0.6,1.9-0.6c1.5,0,2.9,1.1,2.9,2.7
				C279.4,44.2,279.1,44.9,278.6,45.3z"/>
			<path class="st0" d="M312.7,49c-1.7,0-3-1.4-3-3V27c0-5.5-2.9-7.2-7.2-7.2c-3.9,0-7.4,2.4-9.3,4.9V46c0,1.7-1.4,3-3.1,3
				c-1.7,0-3-1.4-3-3V5c0-1.6,1.4-3,3.2-3c1.6,0,3,1.4,3,3v14.9c2.3-2.7,6.7-5.5,11.9-5.5c7.1,0,10.7,3.5,10.7,10.6v21
				C315.9,47.6,314.5,49,312.7,49z"/>
			<path class="st0" d="M370.6,18.6l-8.7,27.6c-0.5,1.7-2.1,2.8-3.9,2.8h-0.1c-1.8,0-3.3-1.2-3.9-2.8l-7.5-23.3L339,46.2
				c-0.5,1.7-2.1,2.8-3.9,2.8H335c-1.7,0-3.3-1.2-3.8-2.8l-8.7-27.6c-0.1-0.3-0.1-0.6-0.1-0.8c0-1.5,1.2-3,3-3c1.3,0,2.6,0.8,3,2.1
				l7.1,23.9l7.7-23.6c0.5-1.4,1.7-2.4,3.4-2.4c1.5,0,2.7,1,3.2,2.4l7.8,23.6l7.1-23.9c0.3-1.2,1.6-2.1,2.9-2.1c1.8,0,3,1.4,3,3
				C370.7,18,370.6,18.3,370.6,18.6z"/>
			<path class="st0" d="M392,49.4c-10.4,0-16.8-8-16.8-17.6c0-9.6,6.4-17.5,16.8-17.5c10.4,0,16.9,7.9,16.9,17.5
				C408.9,41.5,402.5,49.4,392,49.4z M392,19.8c-6.6,0-10.4,5.7-10.4,12c0,6.4,3.8,12.1,10.4,12.1c6.7,0,10.4-5.7,10.4-12.1
				C402.5,25.5,398.7,19.8,392,19.8z"/>
			<path class="st0" d="M431.7,49.4c-10.4,0-16.8-8-16.8-17.6c0-9.6,6.4-17.5,16.8-17.5c10.4,0,16.9,7.9,16.9,17.5
				C448.5,41.5,442.1,49.4,431.7,49.4z M431.7,19.8c-6.6,0-10.4,5.7-10.4,12c0,6.4,3.8,12.1,10.4,12.1c6.7,0,10.4-5.7,10.4-12.1
				C442.1,25.5,438.4,19.8,431.7,19.8z"/>
			<path class="st0" d="M483.4,49c-1.7,0-3-1.4-3-3v-2.1c-2.6,3.3-6.5,5.6-11,5.6c-8.6,0-14.9-6.6-14.9-17.5
				c0-10.7,6.2-17.6,14.9-17.6c4.4,0,8.3,2.1,11,5.7V5c0-1.6,1.4-3,3.2-3c1.6,0,3,1.4,3,3v41C486.5,47.6,485.1,49,483.4,49z
				 M480.4,24.8c-1.7-2.7-5.5-5-9.4-5c-6.2,0-10.1,5.1-10.1,12.1c0,7,3.9,12,10.1,12c3.9,0,7.7-2.1,9.4-4.9V24.8z"/>
			<path class="st0" d="M174.4,105c-1.9,0-3.5-1.5-3.5-3.4V68.1l-14.7,35.8c-0.3,0.6-0.9,1.1-1.8,1.1c-0.7,0-1.4-0.5-1.7-1.1
				l-14.6-35.8v33.5c0,1.9-1.5,3.4-3.5,3.4c-1.9,0-3.4-1.5-3.4-3.4V63.1c0-2.6,2.2-4.9,5-4.9c2.6-0.1,5.1,1,6,3.4l12.2,29.7
				l12.2-29.7c0.8-2.1,2.9-3.4,5.1-3.4c3.1-0.1,5.9,1.9,5.9,4.9v38.5C177.8,103.5,176.3,105,174.4,105z"/>
			<path class="st0" d="M215.6,89.8h-23.2c0.5,5.7,4.6,10.6,11.4,10.6c2.8,0,5.9-1,8.3-2.8c0.4-0.2,0.9-0.3,1.4-0.3
				c1.1,0,2.5,1,2.5,2.5c0,3.7-8.6,5.6-12.8,5.6c-10,0-17.2-7.1-17.2-17.6c0-9.7,7-17.5,16.7-17.5c8.1,0,13.6,5.1,15.6,12.5
				c0.3,1.1,0.6,2.6,0.6,3.9C218.8,88.4,217.3,89.8,215.6,89.8z M202.5,75.3c-6.6,0-9.9,5.5-10.2,10.2h20.5
				C212.7,81,209.7,75.3,202.5,75.3z"/>
			<path class="st0" d="M270.3,105c-1.7,0-3-1.4-3-3V82.3c0-3.9-1.7-6.5-5.8-6.5c-3.4,0-6.8,2.4-8.4,4.8v21.3c0,1.7-1.4,3-3.1,3
				c-1.7,0-3-1.4-3-3V82.3c0-3.9-1.7-6.5-5.9-6.5c-3.3,0-6.6,2.4-8.2,4.9v21.2c0,1.7-1.4,3-3.1,3c-1.7,0-3-1.4-3-3V73.7
				c0-1.6,1.4-3,3.2-3c1.6,0,3,1.4,3,3v2.1c1.4-2.1,5.8-5.5,10.8-5.5c5.1,0,8,2.6,9.1,6.2c1.9-3,6.4-6.2,11.3-6.2
				c6.2,0,9.5,3.3,9.5,10.1v21.5C273.4,103.6,272.1,105,270.3,105z"/>
			<path class="st0" d="M298.2,105.4c-10.4,0-16.8-8-16.8-17.6s6.4-17.5,16.8-17.5c10.4,0,16.9,7.9,16.9,17.5
				S308.7,105.4,298.2,105.4z M298.2,75.8c-6.6,0-10.4,5.7-10.4,12c0,6.4,3.8,12.1,10.4,12.1c6.7,0,10.4-5.7,10.4-12.1
				C308.7,81.5,304.9,75.8,298.2,75.8z"/>
			<path class="st0" d="M337.5,76.7c-3.2,0.3-6.3,1.7-8.3,4.6v20.6c0,1.7-1.4,3-3.1,3H326c-1.7-0.1-3-1.4-3-3V73.7c0-1.6,1.4-3,3.2-3
				c1.6,0,3,1.4,3,3v2.6c1.9-2.6,4.9-5.7,8.6-5.7c1.6,0,2.8,1.2,2.8,2.8C340.6,75.2,339.2,76.6,337.5,76.7z"/>
			<path class="st0" d="M353.4,62.8c0,2.1-1.7,3.9-3.9,3.9c-2.1,0-3.9-1.8-3.9-3.9c0-2.2,1.8-4,3.9-4
				C351.7,58.8,353.4,60.6,353.4,62.8z M349.5,105c-1.7,0-3-1.4-3-3V73.7c0-1.6,1.4-3,3.2-3c1.6,0,3,1.4,3,3v28.2
				C352.6,103.6,351.2,105,349.5,105z"/>
			<path class="st0" d="M386.3,105h-0.2c-1.2,0-2.8-1-2.8-3v-1.1c-2.7,3-6.5,4.6-11,4.6c-5.5,0-11.6-3.7-11.6-11.1
				c0-7.5,6.1-10.9,11.6-10.9c4.6,0,8.4,1.5,11,4.4v-5.6c0-4.2-3.5-6.7-8.2-6.7c-3.1,0-5.9,1-8.4,2.9c-0.5,0.3-1,0.6-1.5,0.6
				c-1.2,0-2.6-1-2.6-2.4c0-0.6,0.2-1.1,0.6-1.6c3.2-3.2,8.2-4.6,12.7-4.6c7.2,0,13.4,3.1,13.4,11.6v20
				C389.4,103.6,388,105,386.3,105z M383.2,91.6c-1.9-2.6-5.2-3.9-8.6-3.9c-4.5,0-7.7,2.8-7.7,6.8c0,3.9,3.3,6.6,7.7,6.6
				c3.5,0,6.8-1.2,8.6-3.8V91.6z"/>
			<path class="st0" d="M402.3,105c-1.7,0-3-1.4-3-3V61c0-1.6,1.4-3,3.2-3c1.6,0,3,1.4,3,3v41C405.4,103.6,404.1,105,402.3,105z"/>
		</g>
		<g>
			<path class="st0" d="M44.6,75C44.2,74.7,33,64.5,33,52.3c0-14.8,9.1-23.7,24.2-23.7c8.9,0,17.2,7,21.2,10.9
				c3.9-3.8,11.8-10.5,20.4-10.9C90.2,11.7,72.6,0,52.2,0C23.4,0,0,23.4,0,52.2s23.4,52.2,52.2,52.2c6.7,0,13.2-1.3,19.1-3.6L44.6,75
				z"/>
			<g>
				<path class="st0" d="M112,79.9c0,1.2-1,2.2-2.2,2.2h-9.6v9.6c0,1.2-1,2.2-2.2,2.2h-4.4c-1.2,0-2.2-1-2.2-2.2v-9.6h-9.6
					c-1.2,0-2.2-1-2.2-2.2v-4.4c0-1.2,1-2.2,2.2-2.2h9.6v-9.6c0-1.2,1-2.2,2.2-2.2H98c1.2,0,2.2,1,2.2,2.2v9.6h9.6
					c1.2,0,2.2,1,2.2,2.2V79.9z"/>
			</g>
		</g>
	</g>
</svg>
