<?xml version="1.0" encoding="iso-8859-1"?>
<!-- Generator: Adobe Illustrator 19.0.0, SVG Export Plug-In . SVG Version: 6.00 Build 0)  -->
<svg version="1.1" id="Capa_1" xmlns="http://www.w3.org/2000/svg" xmlns:xlink="http://www.w3.org/1999/xlink" x="0px" y="0px"
	 viewBox="0 0 512 512" style="enable-background:new 0 0 512 512;" xml:space="preserve">
<circle style="fill:#662E57;" cx="256" cy="256" r="256"/>
<path style="fill:#590F38;" d="M394.742,146.333l-62.264,41.855l-49.565-49.565l-72.58,39.301l22.441,39.302l-78.603-78.603
	L102.022,172l39.073,39.072L112,394l116.53,116.53c9.026,0.963,18.188,1.47,27.47,1.47c141.385,0,256-114.615,256-256
	c0-5.934-0.219-11.815-0.617-17.648l-99.728-99.728L394.742,146.333z"/>
<rect x="112" y="353" style="fill:#FFDC00;" width="288" height="41"/>
<rect x="256" y="353" style="fill:#FFC000;" width="144" height="41"/>
<path style="fill:#F1333F;" d="M321.958,172L321.958,172C285.53,172,256,201.53,256,237.958C256,201.53,226.47,172,190.043,172l0,0
	c-39.079,0-69.589,33.787-65.615,72.664L135.5,353H256h120.5l11.073-108.336C391.547,205.787,361.037,172,321.958,172z"/>
<path style="fill:#AE283F;" d="M321.958,172L321.958,172C285.53,172,256,201.53,256,237.958V353h120.5l11.073-108.336
	C391.547,205.787,361.037,172,321.958,172z"/>
<path style="fill:#FFCF35;" d="M329.48,353h-20V222.48c0-29.489-23.991-53.48-53.48-53.48s-53.48,23.991-53.48,53.48V353h-20V222.48
	c0-40.517,32.963-73.48,73.48-73.48c40.518,0,73.48,32.963,73.48,73.48V353z"/>
<path style="fill:#FFB344;" d="M256,149v20c29.489,0,53.48,23.991,53.48,53.48V353h20V222.48C329.48,181.963,296.518,149,256,149z"
	/>
<path style="fill:#FFCF35;" d="M137.258,355.142l-20-0.006L117.319,149h9.997c40.517,0,73.48,32.963,73.48,73.48V353h-20V222.48
	c0-26.073-18.756-47.849-43.484-52.543L137.258,355.142z"/>
<path style="fill:#FFB344;" d="M374.742,355.142l-0.056-185.205c-24.727,4.695-43.483,26.47-43.483,52.543V353h-20V222.48
	c0-40.517,32.963-73.48,73.48-73.48h9.997l0.062,206.136L374.742,355.142z"/>
<circle style="fill:#97CC52;" cx="256" cy="154" r="31"/>
<path style="fill:#60C344;" d="M256,123v62c17.121,0,31-13.879,31-31S273.121,123,256,123z"/>
<circle style="fill:#97CC52;" cx="127.26" cy="154" r="31"/>
<circle style="fill:#60C344;" cx="384.74" cy="154" r="31"/>
<g>
</g>
<g>
</g>
<g>
</g>
<g>
</g>
<g>
</g>
<g>
</g>
<g>
</g>
<g>
</g>
<g>
</g>
<g>
</g>
<g>
</g>
<g>
</g>
<g>
</g>
<g>
</g>
<g>
</g>
</svg>
